<svg id="svg" version="1.1" xmlns="http://www.w3.org/2000/svg" xmlns:xlink="http://www.w3.org/1999/xlink" width="400" height="396.9230769230769" viewBox="0, 0, 400,396.9230769230769"><g id="svgg"><path id="path0" d="M159.384 0.285 C 158.237 0.370,157.299 0.608,157.299 0.815 C 157.299 1.022,156.941 1.192,156.504 1.192 C 156.068 1.192,155.710 1.370,155.710 1.589 C 155.710 1.807,155.174 1.986,154.518 1.986 C 153.863 1.986,153.327 2.165,153.327 2.383 C 153.327 2.602,153.060 2.781,152.734 2.781 C 152.408 2.781,151.919 3.138,151.646 3.575 C 151.373 4.012,150.930 4.369,150.663 4.369 C 149.786 4.369,142.602 11.175,142.602 12.006 C 142.602 12.297,142.244 12.793,141.807 13.108 C 141.370 13.423,141.013 13.999,141.013 14.388 C 141.013 14.776,140.834 15.094,140.616 15.094 C 140.397 15.094,140.218 15.521,140.218 16.042 C 140.218 16.563,139.951 17.502,139.625 18.127 C 139.299 18.753,139.031 20.025,139.029 20.953 C 139.028 21.882,138.848 22.642,138.630 22.642 C 138.374 22.642,138.232 26.722,138.232 34.089 L 138.232 45.537 136.246 46.077 C 135.154 46.375,134.260 46.765,134.260 46.944 C 134.260 47.123,133.990 47.269,133.659 47.269 C 133.328 47.269,132.747 47.428,132.368 47.623 C 131.989 47.817,130.785 48.398,129.692 48.914 C 128.600 49.429,127.646 49.985,127.574 50.149 C 127.501 50.313,127.114 50.447,126.713 50.447 C 126.312 50.447,125.913 50.661,125.826 50.922 C 125.739 51.184,123.940 49.709,121.827 47.645 C 119.715 45.581,117.403 43.327,116.689 42.636 C 115.976 41.945,114.712 40.649,113.880 39.756 C 113.049 38.863,112.110 38.133,111.795 38.133 C 111.479 38.133,111.221 37.987,111.221 37.810 C 111.221 37.347,108.113 35.750,107.212 35.750 C 106.795 35.750,106.455 35.571,106.455 35.353 C 106.455 35.134,106.097 34.955,105.660 34.955 C 105.223 34.955,104.866 34.777,104.866 34.558 C 104.866 34.340,103.972 34.161,102.880 34.161 C 101.787 34.161,100.894 33.982,100.894 33.764 C 100.894 33.523,99.172 33.366,96.524 33.366 C 93.876 33.366,92.155 33.523,92.155 33.764 C 92.155 33.982,91.445 34.161,90.578 34.161 C 89.711 34.161,88.365 34.518,87.587 34.955 C 86.809 35.392,85.927 35.750,85.626 35.750 C 84.883 35.750,81.827 37.407,81.827 37.810 C 81.827 37.987,81.631 38.133,81.392 38.133 C 80.883 38.133,79.317 39.646,64.844 54.119 C 63.751 55.211,60.981 57.982,58.687 60.276 C 56.393 62.570,53.645 65.317,52.581 66.382 C 51.516 67.446,48.947 69.998,46.872 72.052 C 41.686 77.185,39.722 79.376,39.722 80.028 C 39.722 80.333,39.364 80.695,38.928 80.834 C 38.491 80.973,38.133 81.432,38.133 81.854 C 38.133 82.276,37.954 82.622,37.736 82.622 C 37.517 82.622,37.339 83.158,37.339 83.813 C 37.339 84.469,37.160 85.005,36.941 85.005 C 36.723 85.005,36.544 85.362,36.544 85.799 C 36.544 86.236,36.365 86.594,36.147 86.594 C 35.929 86.594,35.750 87.488,35.750 88.580 C 35.750 89.672,35.571 90.566,35.353 90.566 C 35.107 90.566,34.955 92.618,34.955 95.929 C 34.955 99.239,35.107 101.291,35.353 101.291 C 35.571 101.291,35.750 102.095,35.750 103.078 C 35.750 104.062,35.929 104.866,36.147 104.866 C 36.365 104.866,36.544 105.223,36.544 105.660 C 36.544 106.097,36.723 106.455,36.941 106.455 C 37.160 106.455,37.339 106.991,37.339 107.646 C 37.339 108.302,37.517 108.838,37.736 108.838 C 37.954 108.838,38.133 109.156,38.133 109.545 C 38.133 109.934,38.491 110.509,38.928 110.824 C 39.364 111.139,39.722 111.643,39.722 111.943 C 39.722 112.244,42.314 115.062,45.482 118.206 C 50.926 123.610,52.531 125.919,50.844 125.919 C 50.626 125.919,50.447 126.455,50.447 127.110 C 50.447 127.766,50.268 128.302,50.050 128.302 C 49.831 128.302,49.652 128.659,49.652 129.096 C 49.652 129.533,49.474 129.891,49.255 129.891 C 49.037 129.891,48.858 130.248,48.858 130.685 C 48.858 131.122,48.679 131.480,48.461 131.480 C 48.242 131.480,48.064 131.837,48.064 132.274 C 48.064 132.711,47.885 133.069,47.666 133.069 C 47.448 133.069,47.269 133.515,47.269 134.062 C 47.269 134.608,47.090 135.055,46.872 135.055 C 46.653 135.055,46.475 135.412,46.475 135.849 C 46.475 136.626,46.210 136.643,34.558 136.643 C 26.879 136.643,22.642 136.785,22.642 137.041 C 22.642 137.259,21.837 137.438,20.854 137.438 C 19.871 137.438,19.067 137.617,19.067 137.835 C 19.067 138.054,18.709 138.232,18.272 138.232 C 17.835 138.232,17.478 138.411,17.478 138.630 C 17.478 138.848,16.941 139.027,16.286 139.027 C 15.631 139.027,15.094 139.206,15.094 139.424 C 15.094 139.643,14.776 139.821,14.388 139.821 C 13.999 139.821,13.423 140.179,13.108 140.616 C 12.793 141.053,12.292 141.410,11.995 141.410 C 11.291 141.410,4.369 148.331,4.369 149.036 C 4.369 149.333,4.012 149.834,3.575 150.149 C 3.138 150.464,2.781 151.040,2.781 151.428 C 2.781 151.817,2.602 152.135,2.383 152.135 C 2.165 152.135,1.986 152.671,1.986 153.327 C 1.986 153.982,1.807 154.518,1.589 154.518 C 1.370 154.518,1.192 154.861,1.192 155.280 C 1.192 155.698,0.968 156.116,0.695 156.207 C -0.034 156.450,-0.034 240.770,0.695 241.013 C 0.968 241.104,1.192 241.521,1.192 241.940 C 1.192 242.358,1.370 242.701,1.589 242.701 C 1.807 242.701,1.986 243.237,1.986 243.893 C 1.986 244.548,2.165 245.084,2.383 245.084 C 2.602 245.084,2.781 245.402,2.781 245.791 C 2.781 246.180,3.138 246.756,3.575 247.071 C 4.012 247.385,4.369 247.886,4.369 248.183 C 4.369 248.888,11.291 255.809,11.995 255.809 C 12.292 255.809,12.793 256.167,13.108 256.604 C 13.423 257.041,13.999 257.398,14.388 257.398 C 14.776 257.398,15.094 257.577,15.094 257.795 C 15.094 258.014,15.631 258.193,16.286 258.193 C 16.941 258.193,17.478 258.371,17.478 258.590 C 17.478 258.808,17.835 258.987,18.272 258.987 C 18.709 258.987,19.067 259.166,19.067 259.384 C 19.067 259.603,19.871 259.782,20.854 259.782 C 21.837 259.782,22.642 259.960,22.642 260.179 C 22.642 260.435,26.879 260.576,34.558 260.576 C 46.210 260.576,46.475 260.594,46.475 261.370 C 46.475 261.807,46.653 262.165,46.872 262.165 C 47.090 262.165,47.269 262.522,47.269 262.959 C 47.269 263.396,47.448 263.754,47.666 263.754 C 47.885 263.754,48.064 264.201,48.064 264.747 C 48.064 265.293,48.242 265.740,48.461 265.740 C 48.679 265.740,48.858 266.097,48.858 266.534 C 48.858 266.971,49.037 267.329,49.255 267.329 C 49.474 267.329,49.652 267.686,49.652 268.123 C 49.652 268.560,49.831 268.918,50.050 268.918 C 50.268 268.918,50.447 269.454,50.447 270.109 C 50.447 270.765,50.626 271.301,50.844 271.301 C 52.531 271.301,50.926 273.609,45.482 279.013 C 42.314 282.157,39.722 284.976,39.722 285.276 C 39.722 285.577,39.364 286.080,38.928 286.395 C 38.491 286.710,38.133 287.286,38.133 287.675 C 38.133 288.063,37.954 288.381,37.736 288.381 C 37.517 288.381,37.339 288.918,37.339 289.573 C 37.339 290.228,37.205 290.766,37.041 290.768 C 36.497 290.773,35.750 292.887,35.750 294.419 C 35.750 295.249,35.571 295.929,35.353 295.929 C 35.107 295.929,34.955 297.981,34.955 301.291 C 34.955 304.601,35.107 306.653,35.353 306.653 C 35.571 306.653,35.750 307.547,35.750 308.640 C 35.750 309.732,35.929 310.626,36.147 310.626 C 36.365 310.626,36.544 310.983,36.544 311.420 C 36.544 311.857,36.723 312.214,36.941 312.214 C 37.160 312.214,37.339 312.751,37.339 313.406 C 37.339 314.062,37.517 314.598,37.736 314.598 C 37.954 314.598,38.133 314.943,38.133 315.365 C 38.133 315.788,38.491 316.247,38.928 316.385 C 39.364 316.524,39.722 316.887,39.722 317.191 C 39.722 317.842,41.687 320.036,46.821 325.116 C 48.869 327.143,51.461 329.717,52.581 330.838 C 53.701 331.958,56.449 334.706,58.687 336.944 C 60.925 339.182,63.650 341.907,64.742 342.999 C 65.834 344.091,68.599 346.862,70.886 349.156 C 73.173 351.450,75.935 354.131,77.025 355.114 C 78.115 356.097,79.117 357.214,79.252 357.597 C 79.387 357.979,79.720 358.292,79.992 358.292 C 80.263 358.292,80.832 358.605,81.256 358.988 C 81.970 359.633,83.909 360.645,86.792 361.879 C 93.441 364.723,107.108 363.142,111.781 358.987 C 112.211 358.605,112.758 358.292,112.996 358.292 C 113.234 358.292,113.692 357.907,114.014 357.438 C 114.335 356.968,115.359 355.850,116.290 354.955 C 117.221 354.059,119.711 351.638,121.825 349.574 C 123.938 347.510,125.739 346.036,125.826 346.297 C 125.913 346.559,126.312 346.773,126.713 346.773 C 127.114 346.773,127.501 346.907,127.574 347.071 C 127.701 347.356,130.705 348.879,132.572 349.603 C 134.393 350.310,135.669 350.847,136.340 351.188 C 136.720 351.381,137.300 351.539,137.631 351.539 C 138.154 351.539,138.232 353.038,138.232 363.059 C 138.232 370.473,138.374 374.578,138.630 374.578 C 138.848 374.578,139.028 375.338,139.029 376.266 C 139.031 377.195,139.299 378.466,139.625 379.092 C 139.951 379.718,140.218 380.656,140.218 381.177 C 140.218 381.699,140.397 382.125,140.616 382.125 C 140.834 382.125,141.013 382.443,141.013 382.832 C 141.013 383.221,141.370 383.796,141.807 384.111 C 142.244 384.426,142.602 384.922,142.602 385.214 C 142.602 386.044,149.786 392.850,150.663 392.850 C 150.930 392.850,151.373 393.208,151.646 393.644 C 151.919 394.081,152.408 394.439,152.734 394.439 C 153.060 394.439,153.327 394.618,153.327 394.836 C 153.327 395.055,153.863 395.233,154.518 395.233 C 155.174 395.233,155.710 395.412,155.710 395.631 C 155.710 395.849,156.053 396.028,156.471 396.028 C 156.890 396.028,157.307 396.251,157.398 396.524 C 157.529 396.917,166.411 397.021,200.033 397.021 L 242.502 397.021 244.004 396.127 C 244.830 395.636,245.858 395.233,246.288 395.233 C 246.718 395.233,247.071 395.055,247.071 394.836 C 247.071 394.618,247.389 394.439,247.777 394.439 C 248.166 394.439,248.742 394.081,249.057 393.644 C 249.372 393.208,249.858 392.850,250.138 392.850 C 250.816 392.850,257.795 385.889,257.795 385.213 C 257.795 384.922,258.153 384.426,258.590 384.111 C 259.027 383.796,259.384 383.221,259.384 382.832 C 259.384 382.443,259.563 382.125,259.782 382.125 C 260.000 382.125,260.179 381.589,260.179 380.933 C 260.179 380.278,260.357 379.742,260.576 379.742 C 260.794 379.742,260.973 379.384,260.973 378.947 C 260.973 378.510,261.152 378.153,261.370 378.153 C 261.589 378.153,261.768 377.359,261.768 376.389 C 261.768 375.419,261.946 374.514,262.165 374.379 C 262.415 374.225,262.562 369.940,262.562 362.837 C 262.562 351.804,262.581 351.539,263.357 351.539 C 263.793 351.539,264.151 351.360,264.151 351.142 C 264.151 350.924,264.508 350.745,264.945 350.745 C 265.382 350.745,265.740 350.566,265.740 350.348 C 265.740 350.129,266.176 349.950,266.709 349.950 C 267.243 349.950,267.790 349.772,267.925 349.553 C 268.060 349.335,268.517 349.156,268.941 349.156 C 269.365 349.156,269.712 348.977,269.712 348.759 C 269.712 348.540,270.070 348.361,270.506 348.361 C 270.943 348.361,271.301 348.183,271.301 347.964 C 271.301 347.746,271.564 347.567,271.885 347.567 C 272.206 347.567,273.074 347.227,273.814 346.811 L 275.160 346.055 281.667 352.571 C 285.246 356.154,288.371 359.086,288.613 359.086 C 288.855 359.086,289.376 359.444,289.772 359.881 C 290.167 360.318,290.820 360.675,291.223 360.675 C 291.627 360.675,291.956 360.854,291.956 361.072 C 291.956 361.291,292.471 361.470,293.099 361.470 C 293.728 361.470,294.468 361.742,294.745 362.075 C 295.021 362.408,295.339 362.588,295.452 362.476 C 295.565 362.363,295.924 362.493,296.251 362.764 C 297.430 363.742,311.319 363.399,313.120 362.347 C 313.946 361.864,314.849 361.470,315.127 361.470 C 315.848 361.470,317.769 360.532,317.772 360.179 C 317.774 360.015,318.044 359.881,318.371 359.881 C 318.699 359.881,318.967 359.702,318.967 359.484 C 318.967 359.265,319.136 359.086,319.343 359.086 C 319.766 359.086,325.936 353.261,330.237 348.802 C 331.794 347.187,334.565 344.416,336.394 342.645 C 338.222 340.873,340.814 338.294,342.153 336.913 C 345.983 332.964,350.031 328.912,352.782 326.272 C 356.844 322.375,361.072 317.772,361.072 317.245 C 361.072 316.978,361.430 316.502,361.867 316.187 C 362.304 315.872,362.661 315.385,362.661 315.106 C 362.661 314.826,362.840 314.598,363.059 314.598 C 363.277 314.598,363.456 314.062,363.456 313.406 C 363.456 312.751,363.635 312.214,363.853 312.214 C 364.071 312.214,364.250 311.857,364.250 311.420 C 364.250 310.983,364.429 310.626,364.647 310.626 C 364.866 310.626,365.045 309.732,365.045 308.640 C 365.045 307.547,365.223 306.653,365.442 306.653 C 365.687 306.653,365.839 304.601,365.839 301.291 C 365.839 297.981,365.687 295.929,365.442 295.929 C 365.223 295.929,365.045 295.124,365.045 294.141 C 365.045 293.158,364.866 292.354,364.647 292.354 C 364.429 292.354,364.250 291.996,364.250 291.559 C 364.250 291.122,364.071 290.765,363.853 290.765 C 363.635 290.765,363.456 290.228,363.456 289.573 C 363.456 288.918,363.277 288.381,363.059 288.381 C 362.840 288.381,362.661 288.063,362.661 287.675 C 362.661 287.286,362.304 286.710,361.867 286.395 C 361.430 286.080,361.072 285.598,361.072 285.323 C 361.072 285.048,358.265 282.016,354.833 278.586 C 351.401 275.156,348.810 272.277,349.073 272.189 C 349.337 272.101,349.553 271.687,349.553 271.268 C 349.553 270.849,349.732 270.506,349.950 270.506 C 350.169 270.506,350.348 270.160,350.348 269.735 C 350.348 269.311,350.526 268.854,350.745 268.719 C 350.963 268.584,351.142 268.037,351.142 267.504 C 351.142 266.971,351.277 266.534,351.442 266.534 C 351.607 266.534,351.977 265.953,352.263 265.243 C 352.549 264.533,352.950 263.642,353.154 263.263 C 353.358 262.883,353.525 262.379,353.525 262.142 C 353.525 260.684,354.390 260.576,366.009 260.576 C 373.311 260.576,377.358 260.434,377.358 260.179 C 377.358 259.960,378.252 259.782,379.345 259.782 C 380.437 259.782,381.331 259.603,381.331 259.384 C 381.331 259.166,381.599 258.987,381.927 258.987 C 382.254 258.987,382.522 258.808,382.522 258.590 C 382.522 258.371,383.059 258.193,383.714 258.193 C 384.369 258.193,384.906 258.014,384.906 257.795 C 384.906 257.577,385.224 257.398,385.612 257.398 C 386.001 257.398,386.577 257.041,386.892 256.604 C 387.207 256.167,387.717 255.809,388.026 255.809 C 388.759 255.809,395.631 248.938,395.631 248.205 C 395.631 247.896,395.988 247.385,396.425 247.071 C 396.862 246.756,397.219 246.180,397.219 245.791 C 397.219 245.402,397.398 245.084,397.617 245.084 C 397.835 245.084,398.014 244.548,398.014 243.893 C 398.014 243.237,398.193 242.701,398.411 242.701 C 398.630 242.701,398.808 242.448,398.808 242.138 C 398.808 241.829,399.032 241.501,399.305 241.410 C 400.034 241.167,400.034 156.052,399.305 155.809 C 399.032 155.718,398.808 155.391,398.808 155.081 C 398.808 154.772,398.630 154.518,398.411 154.518 C 398.193 154.518,398.014 153.982,398.014 153.327 C 398.014 152.671,397.835 152.135,397.617 152.135 C 397.398 152.135,397.219 151.817,397.219 151.428 C 397.219 151.040,396.862 150.464,396.425 150.149 C 395.988 149.834,395.631 149.324,395.631 149.015 C 395.631 148.282,388.759 141.410,388.026 141.410 C 387.717 141.410,387.207 141.053,386.892 140.616 C 386.577 140.179,386.001 139.821,385.612 139.821 C 385.224 139.821,384.906 139.643,384.906 139.424 C 384.906 139.206,384.369 139.027,383.714 139.027 C 383.059 139.027,382.522 138.848,382.522 138.630 C 382.522 138.411,382.254 138.232,381.927 138.232 C 381.599 138.232,381.331 138.054,381.331 137.835 C 381.331 137.617,380.437 137.438,379.345 137.438 C 378.252 137.438,377.358 137.259,377.358 137.041 C 377.358 136.785,373.311 136.643,366.009 136.643 C 354.390 136.643,353.525 136.535,353.525 135.078 C 353.525 134.841,353.366 134.336,353.172 133.957 C 352.977 133.578,352.421 132.373,351.936 131.281 C 351.452 130.189,350.896 128.985,350.701 128.605 C 350.507 128.226,350.348 127.645,350.348 127.314 C 350.348 126.984,350.169 126.713,349.950 126.713 C 349.732 126.713,349.553 126.370,349.553 125.952 C 349.553 125.533,349.337 125.118,349.073 125.030 C 348.810 124.942,351.401 122.064,354.833 118.634 C 358.265 115.203,361.072 112.172,361.072 111.897 C 361.072 111.622,361.430 111.139,361.867 110.824 C 362.304 110.509,362.661 109.934,362.661 109.545 C 362.661 109.156,362.840 108.838,363.059 108.838 C 363.277 108.838,363.456 108.302,363.456 107.646 C 363.456 106.991,363.635 106.455,363.853 106.455 C 364.071 106.455,364.250 106.097,364.250 105.660 C 364.250 105.223,364.429 104.866,364.647 104.866 C 364.866 104.866,365.045 104.072,365.045 103.102 C 365.045 102.132,365.223 101.227,365.442 101.092 C 365.674 100.949,365.839 98.705,365.839 95.706 C 365.839 92.544,365.686 90.566,365.442 90.566 C 365.223 90.566,365.045 89.672,365.045 88.580 C 365.045 87.488,364.866 86.594,364.647 86.594 C 364.429 86.594,364.250 86.236,364.250 85.799 C 364.250 85.362,364.071 85.005,363.853 85.005 C 363.635 85.005,363.456 84.469,363.456 83.813 C 363.456 83.158,363.277 82.622,363.059 82.622 C 362.840 82.622,362.661 82.355,362.661 82.029 C 362.661 81.703,362.304 81.213,361.867 80.941 C 361.430 80.668,361.072 80.226,361.072 79.958 C 361.072 79.427,357.759 75.814,353.189 71.363 C 351.585 69.799,348.814 67.024,347.033 65.196 C 345.251 63.367,342.482 60.596,340.880 59.039 C 339.277 57.481,336.685 54.896,335.120 53.293 C 332.349 50.457,328.750 46.890,322.726 41.013 C 321.103 39.429,319.675 38.133,319.553 38.133 C 319.431 38.133,318.948 37.776,318.479 37.339 C 318.009 36.902,317.391 36.544,317.105 36.544 C 316.818 36.544,316.584 36.365,316.584 36.147 C 316.584 35.929,316.048 35.750,315.392 35.750 C 314.737 35.750,314.201 35.571,314.201 35.353 C 314.201 35.134,313.843 34.955,313.406 34.955 C 312.969 34.955,312.612 34.777,312.612 34.558 C 312.612 34.340,311.718 34.161,310.626 34.161 C 309.533 34.161,308.640 33.982,308.640 33.764 C 308.640 33.233,299.633 33.233,299.305 33.764 C 299.170 33.982,298.360 34.161,297.506 34.161 C 296.652 34.161,295.316 34.518,294.538 34.955 C 293.760 35.392,292.889 35.750,292.601 35.750 C 291.853 35.750,289.743 36.854,289.169 37.545 C 288.901 37.869,288.531 38.133,288.347 38.133 C 288.163 38.133,285.057 41.052,281.444 44.620 C 277.832 48.188,274.876 50.959,274.876 50.777 C 274.876 50.595,274.518 50.447,274.081 50.447 C 273.644 50.447,273.287 50.268,273.287 50.050 C 273.287 49.831,272.840 49.652,272.294 49.652 C 271.748 49.652,271.301 49.474,271.301 49.255 C 271.301 49.037,270.943 48.858,270.506 48.858 C 270.070 48.858,269.712 48.679,269.712 48.461 C 269.712 48.242,269.355 48.064,268.918 48.064 C 268.481 48.064,268.123 47.885,268.123 47.666 C 268.123 47.448,267.587 47.269,266.931 47.269 C 266.276 47.269,265.740 47.090,265.740 46.872 C 265.740 46.653,265.382 46.475,264.945 46.475 C 264.508 46.475,264.151 46.296,264.151 46.077 C 264.151 45.859,263.793 45.680,263.357 45.680 C 262.581 45.680,262.562 45.415,262.562 34.383 C 262.562 27.280,262.415 22.994,262.165 22.840 C 261.946 22.705,261.768 21.801,261.768 20.831 C 261.768 19.860,261.589 19.067,261.370 19.067 C 261.152 19.067,260.973 18.709,260.973 18.272 C 260.973 17.835,260.794 17.478,260.576 17.478 C 260.357 17.478,260.179 16.941,260.179 16.286 C 260.179 15.631,260.000 15.094,259.782 15.094 C 259.563 15.094,259.384 14.776,259.384 14.388 C 259.384 13.999,259.027 13.423,258.590 13.108 C 258.153 12.793,257.795 12.298,257.795 12.007 C 257.795 11.331,250.816 4.369,250.138 4.369 C 249.858 4.369,249.372 4.012,249.057 3.575 C 248.742 3.138,248.166 2.781,247.777 2.781 C 247.389 2.781,247.071 2.602,247.071 2.383 C 247.071 2.165,246.718 1.986,246.288 1.986 C 245.858 1.986,244.830 1.584,244.004 1.092 L 242.502 0.199 201.986 0.165 C 179.702 0.146,160.531 0.200,159.384 0.285 M234.661 46.548 L 234.764 65.887 235.654 66.125 C 250.407 70.072,263.687 75.969,276.148 84.108 C 279.497 86.295,277.942 87.356,291.954 73.312 C 298.397 66.853,303.798 61.569,303.955 61.569 C 304.344 61.569,338.034 95.414,338.034 95.805 C 338.034 96.099,334.848 99.310,320.007 113.975 C 316.595 117.347,313.803 120.221,313.803 120.362 C 313.803 120.503,314.384 121.470,315.094 122.510 C 315.804 123.550,316.674 124.877,317.026 125.458 C 317.379 126.039,318.595 128.034,319.729 129.891 C 320.863 131.748,322.840 135.412,324.123 138.034 C 327.759 145.468,330.260 151.973,333.438 162.264 L 333.929 163.853 353.360 164.052 L 372.790 164.250 372.892 198.510 C 372.948 217.354,372.948 232.811,372.892 232.860 C 372.836 232.910,364.047 233.044,353.360 233.158 L 333.929 233.366 333.632 234.359 C 329.668 247.609,324.377 259.999,319.067 268.461 C 317.920 270.288,316.981 271.862,316.981 271.957 C 316.981 272.052,316.266 273.076,315.392 274.234 C 314.518 275.391,313.800 276.501,313.797 276.699 C 313.793 276.898,319.249 282.423,325.922 288.977 C 332.594 295.531,338.049 301.073,338.044 301.293 C 338.038 301.512,330.351 309.373,320.960 318.762 L 303.886 335.832 291.657 323.626 C 284.930 316.913,279.277 311.420,279.093 311.420 C 278.909 311.420,276.654 312.753,274.083 314.382 C 263.468 321.107,245.785 328.816,235.853 331.050 L 234.764 331.294 234.661 350.652 L 234.558 370.010 200.298 370.111 L 166.038 370.213 166.038 351.025 C 166.038 331.046,166.024 330.884,164.375 330.884 C 163.476 330.884,152.959 327.417,148.759 325.736 C 140.995 322.629,133.087 318.590,125.608 313.913 L 121.523 311.358 118.060 314.540 C 116.156 316.291,110.667 321.667,105.862 326.488 C 101.058 331.309,96.856 335.253,96.526 335.253 C 96.195 335.253,88.329 327.651,79.045 318.360 L 62.165 301.467 74.379 289.389 C 81.097 282.746,86.592 277.076,86.590 276.789 C 86.588 276.501,85.352 274.418,83.843 272.160 C 78.987 264.889,74.161 255.097,70.109 244.290 C 69.304 242.144,68.719 240.337,67.502 236.246 L 66.587 233.168 47.474 233.168 C 33.138 233.168,28.242 233.049,27.885 232.691 C 27.380 232.186,27.150 165.980,27.649 164.680 C 27.865 164.119,29.962 164.052,47.237 164.052 L 66.583 164.052 67.872 159.782 C 71.584 147.493,77.483 134.608,83.665 125.286 C 85.276 122.856,86.598 120.620,86.603 120.315 C 86.608 120.011,81.111 114.359,74.388 107.757 L 62.165 95.752 79.351 78.607 L 96.537 61.462 108.631 73.432 C 121.731 86.398,121.340 86.123,124.060 84.272 C 133.760 77.672,147.408 71.357,160.628 67.351 C 163.224 66.564,165.503 65.825,165.693 65.708 C 165.882 65.590,166.038 56.835,166.038 46.250 L 166.038 27.007 200.298 27.108 L 234.558 27.210 234.661 46.548 M192.491 130.343 C 186.728 131.083,178.310 133.120,176.272 134.269 C 175.892 134.483,175.392 134.657,175.160 134.657 C 174.411 134.657,167.384 138.105,164.183 140.043 C 156.571 144.651,151.044 149.715,144.267 158.292 C 142.136 160.989,138.581 167.307,136.323 172.411 C 134.797 175.861,133.155 181.717,131.873 188.282 C 130.204 196.830,131.816 213.700,135.044 221.450 C 135.226 221.887,135.779 223.317,136.272 224.628 C 136.766 225.938,137.295 227.190,137.446 227.408 C 137.598 227.627,138.408 229.146,139.247 230.785 C 140.619 233.464,143.069 237.403,144.411 239.088 C 153.081 249.976,159.467 255.196,170.721 260.600 C 172.970 261.679,175.034 262.562,175.309 262.562 C 175.584 262.562,175.979 262.704,176.187 262.878 C 177.046 263.598,183.667 265.393,188.878 266.320 C 202.421 268.727,220.204 266.050,231.480 259.907 C 232.408 259.401,234.017 258.522,235.055 257.953 C 244.482 252.786,255.063 242.066,260.621 232.050 C 262.704 228.296,266.137 220.432,266.137 219.414 C 266.137 219.108,266.301 218.547,266.500 218.167 C 266.882 217.444,268.211 211.592,268.907 207.574 C 269.436 204.517,269.434 192.683,268.903 189.646 C 268.034 184.668,266.829 179.632,265.869 176.961 C 265.319 175.432,264.770 173.823,264.648 173.386 C 263.103 167.850,255.698 156.830,249.045 150.168 C 242.242 143.354,237.212 139.929,227.408 135.433 C 218.008 131.122,203.221 128.966,192.491 130.343 M200.993 157.696 C 200.993 157.923,202.185 158.093,203.774 158.093 C 205.362 158.093,206.554 158.264,206.554 158.491 C 206.554 158.709,207.448 158.888,208.540 158.888 C 209.633 158.888,210.526 159.067,210.526 159.285 C 210.526 159.503,211.063 159.682,211.718 159.682 C 212.373 159.682,212.910 159.861,212.910 160.079 C 212.910 160.298,213.346 160.477,213.879 160.477 C 214.413 160.477,214.959 160.655,215.094 160.874 C 215.229 161.092,215.776 161.271,216.309 161.271 C 216.843 161.271,217.279 161.450,217.279 161.668 C 217.279 161.887,217.637 162.066,218.073 162.066 C 218.510 162.066,218.868 162.244,218.868 162.463 C 218.868 162.681,219.225 162.860,219.662 162.860 C 220.099 162.860,220.457 163.009,220.457 163.190 C 220.457 163.372,220.948 163.774,221.549 164.083 C 222.150 164.393,222.731 164.736,222.840 164.847 C 223.299 165.310,226.282 167.229,226.543 167.229 C 226.951 167.229,231.976 172.311,231.976 172.724 C 231.976 172.914,232.512 173.631,233.168 174.317 C 233.823 175.003,234.359 175.834,234.359 176.163 C 234.359 176.493,234.538 176.763,234.757 176.763 C 234.975 176.763,235.154 177.016,235.154 177.325 C 235.154 177.635,235.290 177.948,235.455 178.021 C 235.886 178.210,237.934 182.288,237.934 182.956 C 237.934 183.264,238.113 183.515,238.332 183.515 C 238.550 183.515,238.729 184.052,238.729 184.707 C 238.729 185.362,238.908 185.899,239.126 185.899 C 239.345 185.899,239.523 186.514,239.523 187.266 C 239.523 188.017,239.702 188.743,239.921 188.878 C 240.139 189.013,240.318 189.638,240.318 190.268 C 240.318 190.898,240.497 191.523,240.715 191.658 C 240.955 191.806,241.112 194.575,241.112 198.633 C 241.112 202.855,240.964 205.362,240.715 205.362 C 240.497 205.362,240.318 205.978,240.318 206.729 C 240.318 207.481,240.139 208.207,239.921 208.342 C 239.702 208.477,239.523 209.202,239.523 209.954 C 239.523 210.706,239.345 211.321,239.126 211.321 C 238.908 211.321,238.729 211.857,238.729 212.512 C 238.729 213.168,238.550 213.704,238.332 213.704 C 238.113 213.704,237.934 213.956,237.934 214.263 C 237.934 214.931,235.886 219.010,235.455 219.199 C 235.290 219.272,235.154 219.585,235.154 219.894 C 235.154 220.204,234.975 220.457,234.757 220.457 C 234.538 220.457,234.359 220.727,234.359 221.056 C 234.359 221.386,233.823 222.217,233.168 222.903 C 232.512 223.588,231.976 224.306,231.976 224.497 C 231.976 225.146,227.793 229.030,225.412 230.591 C 224.107 231.447,222.949 232.243,222.840 232.360 C 222.731 232.477,222.150 232.827,221.549 233.136 C 220.948 233.446,220.457 233.848,220.457 234.029 C 220.457 234.211,220.099 234.359,219.662 234.359 C 219.225 234.359,218.868 234.538,218.868 234.757 C 218.868 234.975,218.510 235.154,218.073 235.154 C 217.637 235.154,217.279 235.333,217.279 235.551 C 217.279 235.770,216.843 235.948,216.309 235.948 C 215.776 235.948,215.229 236.127,215.094 236.346 C 214.959 236.564,214.413 236.743,213.879 236.743 C 213.346 236.743,212.910 236.922,212.910 237.140 C 212.910 237.358,212.373 237.537,211.718 237.537 C 211.063 237.537,210.526 237.716,210.526 237.934 C 210.526 238.153,209.633 238.332,208.540 238.332 C 207.448 238.332,206.554 238.510,206.554 238.729 C 206.554 238.956,205.362 239.126,203.774 239.126 C 202.185 239.126,200.993 239.296,200.993 239.523 C 200.993 239.742,200.636 239.921,200.199 239.921 C 199.762 239.921,199.404 239.742,199.404 239.523 C 199.404 239.294,198.146 239.126,196.425 239.126 C 194.704 239.126,193.446 238.958,193.446 238.729 C 193.446 238.510,192.731 238.332,191.857 238.332 C 190.983 238.332,190.268 238.153,190.268 237.934 C 190.268 237.716,189.732 237.537,189.076 237.537 C 188.421 237.537,187.885 237.358,187.885 237.140 C 187.885 236.922,187.349 236.743,186.693 236.743 C 186.038 236.743,185.501 236.564,185.501 236.346 C 185.501 236.127,185.055 235.948,184.508 235.948 C 183.962 235.948,183.515 235.770,183.515 235.551 C 183.515 235.333,183.158 235.154,182.721 235.154 C 182.284 235.154,181.927 234.975,181.927 234.757 C 181.927 234.538,181.569 234.359,181.132 234.359 C 180.695 234.359,180.338 234.181,180.338 233.962 C 180.338 233.744,180.020 233.565,179.631 233.565 C 179.242 233.565,178.666 233.208,178.352 232.771 C 178.037 232.334,177.461 231.976,177.072 231.976 C 176.683 231.976,176.365 231.809,176.365 231.606 C 176.365 231.402,175.991 231.117,175.534 230.971 C 174.446 230.626,167.229 223.509,167.229 222.782 C 167.229 222.473,166.872 221.963,166.435 221.648 C 165.998 221.334,165.641 220.758,165.641 220.369 C 165.641 219.980,165.505 219.662,165.340 219.662 C 165.175 219.662,164.787 219.081,164.478 218.371 C 164.169 217.661,163.813 216.991,163.686 216.882 C 163.401 216.636,162.608 214.542,161.805 211.917 C 161.471 210.824,161.036 209.620,160.837 209.241 C 160.639 208.861,160.477 208.112,160.477 207.576 C 160.477 207.040,160.298 206.491,160.079 206.356 C 159.861 206.220,159.682 205.048,159.682 203.750 C 159.682 202.442,159.505 201.390,159.285 201.390 C 159.058 201.390,158.888 200.199,158.888 198.610 C 158.888 197.021,159.058 195.829,159.285 195.829 C 159.505 195.829,159.682 194.778,159.682 193.469 C 159.682 192.171,159.861 190.999,160.079 190.864 C 160.298 190.729,160.477 190.180,160.477 189.643 C 160.477 189.107,160.639 188.358,160.838 187.979 C 161.037 187.599,161.684 185.725,162.275 183.813 C 162.867 181.902,163.509 180.338,163.701 180.338 C 163.894 180.338,164.052 179.980,164.052 179.543 C 164.052 179.106,164.230 178.749,164.449 178.749 C 164.667 178.749,164.846 178.481,164.846 178.153 C 164.846 177.825,165.025 177.557,165.243 177.557 C 165.462 177.557,165.641 177.200,165.641 176.763 C 165.641 176.326,165.789 175.968,165.971 175.968 C 166.152 175.968,166.554 175.477,166.864 174.876 C 167.174 174.275,167.920 173.310,168.520 172.730 C 169.121 172.151,169.613 171.392,169.613 171.042 C 169.613 170.693,169.891 170.407,170.232 170.407 C 170.573 170.407,170.741 170.228,170.606 170.010 C 170.471 169.791,170.649 169.613,171.003 169.613 C 171.356 169.613,171.535 169.434,171.400 169.215 C 171.265 168.997,171.435 168.818,171.778 168.818 C 172.120 168.818,172.956 168.287,173.635 167.639 C 174.314 166.990,175.206 166.352,175.617 166.222 C 176.029 166.091,176.365 165.817,176.365 165.614 C 176.365 165.410,176.600 165.243,176.886 165.243 C 177.173 165.243,177.791 164.886,178.260 164.449 C 178.729 164.012,179.388 163.654,179.725 163.654 C 180.062 163.654,180.338 163.476,180.338 163.257 C 180.338 163.039,180.695 162.860,181.132 162.860 C 181.569 162.860,181.927 162.681,181.927 162.463 C 181.927 162.244,182.284 162.066,182.721 162.066 C 183.158 162.066,183.515 161.887,183.515 161.668 C 183.515 161.450,183.862 161.271,184.286 161.271 C 184.710 161.271,185.168 161.092,185.303 160.874 C 185.438 160.655,186.074 160.477,186.717 160.477 C 187.359 160.477,187.885 160.298,187.885 160.079 C 187.885 159.861,188.421 159.682,189.076 159.682 C 189.732 159.682,190.268 159.503,190.268 159.285 C 190.268 159.067,190.983 158.888,191.857 158.888 C 192.731 158.888,193.446 158.709,193.446 158.491 C 193.446 158.261,194.704 158.093,196.425 158.093 C 198.146 158.093,199.404 157.926,199.404 157.696 C 199.404 157.478,199.762 157.299,200.199 157.299 C 200.636 157.299,200.993 157.478,200.993 157.696 " stroke="none" fill="#202225"" fill-rule="evenodd"></path><path id="path1" d="M166.038 46.250 C 166.038 56.835,165.882 65.590,165.693 65.708 C 165.503 65.825,163.224 66.564,160.628 67.351 C 147.408 71.357,133.760 77.672,124.060 84.272 C 121.340 86.123,121.731 86.398,108.631 73.432 L 96.537 61.462 79.351 78.607 L 62.165 95.752 74.388 107.757 C 81.111 114.359,86.608 120.011,86.603 120.315 C 86.598 120.620,85.276 122.856,83.665 125.286 C 79.571 131.458,74.579 141.256,71.672 148.824 C 69.713 153.922,69.162 155.513,67.872 159.782 L 66.583 164.052 47.237 164.052 C 29.962 164.052,27.865 164.119,27.649 164.680 C 27.150 165.980,27.380 232.186,27.885 232.691 C 28.242 233.049,33.138 233.168,47.474 233.168 L 66.587 233.168 67.502 236.246 C 68.719 240.337,69.304 242.144,70.109 244.290 C 74.161 255.097,78.987 264.889,83.843 272.160 C 85.352 274.418,86.588 276.501,86.590 276.789 C 86.592 277.076,81.097 282.746,74.379 289.389 L 62.165 301.467 79.045 318.360 C 88.329 327.651,96.195 335.253,96.526 335.253 C 96.856 335.253,101.058 331.309,105.862 326.488 C 110.667 321.667,116.156 316.291,118.060 314.540 L 121.523 311.358 125.608 313.913 C 133.087 318.590,140.995 322.629,148.759 325.736 C 152.959 327.417,163.476 330.884,164.375 330.884 C 166.024 330.884,166.038 331.046,166.038 351.025 L 166.038 370.213 200.298 370.111 L 234.558 370.010 234.661 350.652 L 234.764 331.294 235.853 331.050 C 245.785 328.816,263.468 321.107,274.083 314.382 C 276.654 312.753,278.909 311.420,279.093 311.420 C 279.277 311.420,284.930 316.913,291.657 323.626 L 303.886 335.832 320.960 318.762 C 330.351 309.373,338.038 301.512,338.044 301.293 C 338.049 301.073,332.594 295.531,325.922 288.977 C 319.249 282.423,313.793 276.898,313.797 276.699 C 313.800 276.501,314.518 275.391,315.392 274.234 C 316.266 273.076,316.981 272.052,316.981 271.957 C 316.981 271.862,317.920 270.288,319.067 268.461 C 324.377 259.999,329.668 247.609,333.632 234.359 L 333.929 233.366 353.360 233.158 C 364.047 233.044,372.836 232.910,372.892 232.860 C 372.948 232.811,372.948 217.354,372.892 198.510 L 372.790 164.250 353.360 164.052 L 333.929 163.853 333.438 162.264 C 330.260 151.973,327.759 145.468,324.123 138.034 C 322.840 135.412,320.863 131.748,319.729 129.891 C 318.595 128.034,317.379 126.039,317.026 125.458 C 316.674 124.877,315.804 123.550,315.094 122.510 C 314.384 121.470,313.803 120.503,313.803 120.362 C 313.803 120.221,316.595 117.347,320.007 113.975 C 334.848 99.310,338.034 96.099,338.034 95.805 C 338.034 95.414,304.344 61.569,303.955 61.569 C 303.798 61.569,298.397 66.853,291.954 73.312 C 277.942 87.356,279.497 86.295,276.148 84.108 C 263.687 75.969,250.407 70.072,235.654 66.125 L 234.764 65.887 234.661 46.548 L 234.558 27.210 200.298 27.108 L 166.038 27.007 166.038 46.250 M35.453 89.176 C 35.457 90.050,35.538 90.360,35.633 89.866 C 35.728 89.372,35.725 88.657,35.625 88.277 C 35.526 87.898,35.448 88.302,35.453 89.176 M34.705 95.730 C 34.705 98.024,34.771 98.962,34.851 97.815 C 34.931 96.668,34.931 94.791,34.851 93.644 C 34.771 92.498,34.705 93.436,34.705 95.730 M35.445 102.483 C 35.445 103.247,35.526 103.560,35.626 103.178 C 35.726 102.795,35.726 102.170,35.626 101.787 C 35.526 101.405,35.445 101.718,35.445 102.483 M208.818 130.503 C 215.844 131.420,222.515 133.189,227.408 135.433 C 237.212 139.929,242.242 143.354,249.045 150.168 C 255.698 156.830,263.103 167.850,264.648 173.386 C 264.770 173.823,265.319 175.432,265.869 176.961 C 266.829 179.632,268.034 184.668,268.903 189.646 C 269.434 192.683,269.436 204.517,268.907 207.574 C 268.211 211.592,266.882 217.444,266.500 218.167 C 266.301 218.547,266.137 219.108,266.137 219.414 C 266.137 220.432,262.704 228.296,260.621 232.050 C 255.063 242.066,244.482 252.786,235.055 257.953 C 234.017 258.522,232.408 259.401,231.480 259.907 C 220.204 266.050,202.421 268.727,188.878 266.320 C 183.667 265.393,177.046 263.598,176.187 262.878 C 175.979 262.704,175.584 262.562,175.309 262.562 C 175.034 262.562,172.970 261.679,170.721 260.600 C 159.467 255.196,153.081 249.976,144.411 239.088 C 143.069 237.403,140.619 233.464,139.247 230.785 C 138.408 229.146,137.598 227.627,137.446 227.408 C 137.295 227.190,136.766 225.938,136.272 224.628 C 135.779 223.317,135.226 221.887,135.044 221.450 C 131.816 213.700,130.204 196.830,131.873 188.282 C 133.155 181.717,134.797 175.861,136.323 172.411 C 138.581 167.307,142.136 160.989,144.267 158.292 C 151.044 149.715,156.571 144.651,164.183 140.043 C 167.384 138.105,174.411 134.657,175.160 134.657 C 175.392 134.657,175.892 134.483,176.272 134.269 C 178.310 133.120,186.728 131.083,192.491 130.343 C 196.903 129.777,203.772 129.844,208.818 130.503 M35.445 294.737 C 35.445 295.501,35.526 295.814,35.626 295.432 C 35.726 295.050,35.726 294.424,35.626 294.042 C 35.526 293.659,35.445 293.972,35.445 294.737 M34.705 301.490 C 34.705 303.784,34.771 304.722,34.851 303.575 C 34.931 302.428,34.931 300.551,34.851 299.404 C 34.771 298.257,34.705 299.196,34.705 301.490 M35.453 308.044 C 35.457 308.918,35.538 309.228,35.633 308.734 C 35.28 308.240,35.725 307.525,35.625 307.145 C 35.526 306.766,35.448 307.170,35.453 308.044 " stroke="none" fill="#202225" fill-rule="evenodd"></path></g></svg>